<?xml version="1.0" standalone="no"?>
<!DOCTYPE svg PUBLIC "-//W3C//DTD SVG 1.1//EN" "http://www.w3.org/Graphics/SVG/1.1/DTD/svg11.dtd">
<svg xmlns="http://www.w3.org/2000/svg" xmlns:xlink="http://www.w3.org/1999/xlink" version="1.1" id="Layer_1" x="0px" y="0px" width="1040" height="810" viewBox="0 0 1040 810" enable-background="new 0 0 1040 810" xml:space="preserve">
<g>
	<defs>
		<rect id="SVGID_1_" x="-400" y="-101" width="1440" height="1025"/>
	</defs>
	<clipPath id="SVGID_2_">
		<use xlink:href="#SVGID_1_" overflow="visible"/>
	</clipPath>
	<g clip-path="url(#SVGID_2_)">
		<defs>
			<rect id="SVGID_3_" x="-400" y="-100.25" width="1440" height="1024"/>
		</defs>
		<clipPath id="SVGID_4_">
			<use xlink:href="#SVGID_3_" overflow="visible"/>
		</clipPath>
	</g>
	<g clip-path="url(#SVGID_2_)">
		<defs>
			<rect id="SVGID_5_" x="-400" y="-100.25" width="1440" height="1024"/>
		</defs>
		<clipPath id="SVGID_6_">
			<use xlink:href="#SVGID_5_" overflow="visible"/>
		</clipPath>
		<path clip-path="url(#SVGID_6_)" fill="#F3F6FF" d="M191.224,258.332L547.543,52.61c39.154-22.604,89.216-9.19,111.822,29.963    l205.72,356.318c22.608,39.152,9.191,89.217-29.961,111.823l-356.32,205.721c-39.152,22.604-89.216,9.191-111.822-29.963    l-205.72-356.319C138.656,331.001,152.07,280.936,191.224,258.332"/>
		<g clip-path="url(#SVGID_6_)">
			<path fill="#6B8CFF" d="M988.239,382.494c9.657-11.413,34.058-7.221,42.921-2.78c-23.384,42.478-43.999,12.479-51.173,56.165     c-3.046,18.701-25.909,0.915-24.137,33.73c1.515,28.47-18.027,30.94-20.297,46.281c-2.271,15.345-8.445,28.374-21.728,32.84     c-19.402,6.526-34.299-17.064-19.642-28.158c14.641-11.094-13.902-27.522,8.565-40.644c22.465-13.12-1.615-43.498,26.687-51.354     c28.306-7.854,17.89-24.598,27.053-33.411C965.63,386.355,976.148,396.756,988.239,382.494"/>
			<path fill="#1BE3B3" d="M887.434,293.77c4.918-16.203,27.744-14.349,37.544-7.174c-13.722,12.394-34.338,11.919-22.268,60.747     c5.159,20.898-23.501,12.186-7.05,45.701c14.26,29.083-8.467,40.224-3.985,57.269c4.481,17.048,7.51,33.158-4.241,43.703     c-17.17,15.406-37.426-4.101-27.207-22.179c10.217-18.078-23.066-21.351-5.677-45.007c17.408-23.654-20.119-39.92,5.677-60.66     c25.792-20.737-1.514-31.095,4.023-44.352C869.785,308.561,881.28,314.026,887.434,293.77"/>
			<path fill="#54B7FF" d="M763.266,383.58c-8.845-9.194-29.421-4.339-36.748-0.093c22.168,34.892,38.163,8.29,46.566,45.067     c3.584,15.738,22.13-0.594,22.351,27.407c0.199,24.295,16.988,25.361,19.736,38.292c2.749,12.928,8.686,23.685,20.236,26.779     c16.892,4.528,28.343-16.326,15.278-24.988c-13.066-8.66,10.396-24.144-9.441-34.115c-19.84-9.97-0.896-37.082-25.455-42.265     c-24.539-5.183-16.531-19.974-24.797-26.983C782.744,385.667,774.301,395.071,763.266,383.58"/>
			<path fill="none" stroke="#4F4F4F" stroke-width="0.656" d="M877.036,568.753c-2.272-51.386-11.735-192.877,17.248-262.447     c2.53-6.065,7.829-19.056,21.549-19.056"/>
			<path fill="none" stroke="#4F4F4F" stroke-width="0.656" d="M850.187,582.447c-1.313-49.094-22.287-156.275-95.646-192.233"/>
			<path fill="none" stroke="#4F4F4F" stroke-width="0.656" d="M899.722,582.858c4.642-53.284,34.419-168.432,116.501-202.752"/>
			<path fill="#2C2770" d="M834.192,559.241h78.378l20.196,151.373c3.147,23.459-15.139,44.306-38.842,44.306h-41.089     c-23.701,0-41.965-20.847-38.84-44.306L834.192,559.241z"/>
			<path fill="#54B7FF" d="M829.618,559.241h86.218c3.964,0,7.175,3.213,7.175,7.176s-3.211,7.174-7.175,7.174h-86.218     c-3.965,0-7.179-3.211-7.179-7.174S825.653,559.241,829.618,559.241"/>
		</g>
		<path clip-path="url(#SVGID_6_)" fill-rule="evenodd" clip-rule="evenodd" fill="#627AC1" d="M252.209,780.13    c-2.52,0-4.494-2.169-4.262-4.68l20.101-215.559l12.331,1.323l-23.915,215.104C256.223,778.49,254.39,780.13,252.209,780.13"/>
		<path clip-path="url(#SVGID_6_)" fill-rule="evenodd" clip-rule="evenodd" fill="#627AC1" d="M288.179,780.13    c-2.521,0-4.493-2.169-4.259-4.68l20.099-215.559l12.332,1.323l-23.917,215.104C292.192,778.49,290.36,780.13,288.179,780.13"/>
		<path clip-path="url(#SVGID_6_)" fill-rule="evenodd" clip-rule="evenodd" fill="#627AC1" d="M395.993,780.13    c2.519,0,4.492-2.169,4.26-4.68l-20.099-215.559l-12.333,1.323l23.917,215.104C391.98,778.49,393.813,780.13,395.993,780.13"/>
		<path clip-path="url(#SVGID_6_)" fill="#A3BAFF" d="M263.639,545.008h135.19c5.479,0,9.923,4.442,9.923,9.923v-0.001    c0,5.481-4.443,9.925-9.923,9.925h-135.19c-5.479,0-9.923-4.443-9.923-9.925v0.001    C253.716,549.45,258.159,545.008,263.639,545.008"/>
		<path clip-path="url(#SVGID_6_)" fill="#2C2770" d="M486.229,388.732h-62.023c-15.755,0-28.527,12.771-28.527,28.525v50.853    h90.551V388.732z"/>
		<path clip-path="url(#SVGID_6_)" fill="#54B7FF" d="M746.652,388.732H445.298c20.019,0.171,36.151,16.861,36.151,37.393v276.896    c0,28.338,20.755,52.153,48.22,55.319h301.356c-27.467-3.166-48.22-26.981-48.22-55.319V426.125    C782.806,405.593,766.674,388.903,746.652,388.732"/>
		<path clip-path="url(#SVGID_6_)" fill-rule="evenodd" clip-rule="evenodd" fill="#40AFFF" d="M782.645,425.984    c0-1.056-0.061-2.096-0.14-3.126c-25.175-2.846-79.332,2.327-95.704,45.732c-7.032,18.672-4.322,40.475-1.753,61.281    c4.919,39.781,9.401,75.929-55.513,79.579c-98.85,5.56-141.035,26.563-147.667,71.045c-0.24,1.507-0.441,3.016-0.618,4.53v18.019    c0,28.323,20.773,52.129,48.241,55.293h253.153V425.984z"/>
		<path clip-path="url(#SVGID_6_)" fill="#2C2770" d="M828.835,697.565c0-17.307,12.608-31.85,29.256-33.784l18.827-2.185H576.457    c-14.044,3.262-24.021,16.143-24.021,31.008v4.961l-0.02,35.341c0,13.804-10.657,25.091-24.023,25.434h300.442    c26.649-0.342,48.083-22.732,48.083-50.238v-10.536H828.835z"/>
		<path clip-path="url(#SVGID_6_)" fill="#E1F3FF" d="M662.342,541.285c0-6.85-5.376-12.402-11.99-12.402H529.211    c-6.612,0-11.987,5.553-11.987,12.402v8.683c0,6.851,5.375,12.402,11.987,12.402h121.141c6.614,0,11.99-5.552,11.99-12.402    V541.285z"/>
		<path clip-path="url(#SVGID_6_)" fill="#E1F3FF" d="M662.342,470.589c0-6.846-5.376-12.401-11.99-12.401H529.211    c-6.612,0-11.987,5.556-11.987,12.401v8.683c0,6.852,5.375,12.404,11.987,12.404h121.141c6.614,0,11.99-5.553,11.99-12.404    V470.589z"/>
		<path clip-path="url(#SVGID_6_)" fill="#E1F3FF" d="M750.398,470.589c0-6.846-5.438-12.401-12.13-12.401h-34.021    c-6.712,0-12.131,5.556-12.131,12.401v8.683c0,6.852,5.419,12.404,12.131,12.404h34.021c6.691,0,12.13-5.553,12.13-12.404V470.589    z"/>
		<path clip-path="url(#SVGID_6_)" fill="#E1F3FF" d="M750.398,541.285c0-6.85-5.438-12.402-12.13-12.402h-34.021    c-6.712,0-12.131,5.553-12.131,12.402v8.683c0,6.851,5.419,12.402,12.131,12.402h34.021c6.691,0,12.13-5.552,12.13-12.402V541.285    z"/>
		<path clip-path="url(#SVGID_6_)" fill="#E1F3FF" d="M750.398,613.226c0-6.845-5.438-12.401-12.13-12.401h-34.021    c-6.712,0-12.131,5.557-12.131,12.401v8.683c0,6.85,5.419,12.403,12.131,12.403h34.021c6.691,0,12.13-5.554,12.13-12.403V613.226z    "/>
		<path clip-path="url(#SVGID_6_)" fill="#E1F3FF" d="M662.342,613.226c0-6.845-5.376-12.401-11.99-12.401H529.211    c-6.612,0-11.987,5.557-11.987,12.401v8.683c0,6.85,5.375,12.403,11.987,12.403h121.141c6.614,0,11.99-5.554,11.99-12.403V613.226    z"/>
		<path clip-path="url(#SVGID_6_)" fill="#54B7FF" d="M875.64,661.597H574.285c20.016,0.172,36.15,16.919,36.15,37.52v46.957    c0,25.706,18.766,47.309,43.599,50.182l4.623,0.534h301.355l-4.621-0.534c-24.837-2.873-43.6-24.476-43.6-50.182v-46.957    C911.792,678.516,895.66,661.769,875.64,661.597"/>
		<path clip-path="url(#SVGID_6_)" fill="#BAE2FF" d="M680.188,736.013l20.278,16.124l20.274-16.124l20.275,16.124l20.278-16.124    l20.295,16.124l20.278-16.124l20.273,16.124l20.277-16.124l20.276,16.124l20.298-16.124l20.274,16.124l20.278-16.124    l20.275,16.124l20.275-16.124l20.295,16.124l20.276-16.124v10.541c0,27.5-21.432,49.889-48.08,50.232H656.147    c13.364-0.344,24.04-11.63,24.04-25.432V736.013z"/>
		<path clip-path="url(#SVGID_6_)" fill="#E1F3FF" d="M776.153,682.095c-1.733-4.865-6.236-8.094-11.256-8.094H648.519    c-4.183,0-7.092,4.301-5.637,8.353l6.116,17.036c1.73,4.867,6.232,8.099,11.252,8.099h116.38c4.183,0,7.09-4.307,5.636-8.359    L776.153,682.095z"/>
		<path clip-path="url(#SVGID_6_)" fill="#E1F3FF" d="M871.639,682.095c-1.733-4.865-6.254-8.094-11.295-8.094h-44.375    c-4.205,0-7.111,4.301-5.659,8.353l6.135,17.036c1.753,4.867,6.254,8.099,11.294,8.099h44.396c4.185,0,7.093-4.307,5.638-8.359    L871.639,682.095z"/>
		<path clip-path="url(#SVGID_6_)" fill="#FFFFFF" d="M458.271,241.917l167.979-85.588c4.27-2.177,9.499-0.479,11.679,3.794    l56.308,110.51c2.178,4.272,0.479,9.5-3.795,11.68l-167.976,85.586c-4.275,2.179-9.502,0.481-11.677-3.792l-56.31-110.512    C452.301,249.322,453.998,244.095,458.271,241.917"/>
		<path clip-path="url(#SVGID_6_)" fill="none" stroke="#E5E5E5" stroke-width="1.245" d="M458.271,241.917l167.979-85.588    c4.27-2.177,9.499-0.479,11.679,3.794l56.308,110.51c2.178,4.272,0.479,9.5-3.795,11.68l-167.976,85.586    c-4.275,2.179-9.502,0.481-11.677-3.792l-56.31-110.512C452.301,249.322,453.998,244.095,458.271,241.917z"/>
		<path clip-path="url(#SVGID_6_)" fill="#A3B7FF" d="M502.502,274.59c5.197-2.644,7.388-8.745,4.899-13.627    c-2.49-4.883-8.725-6.7-13.902-4.054c-5.179,2.644-7.369,8.744-4.88,13.626C491.092,275.418,497.322,277.233,502.502,274.59"/>
		
			<rect x="519.86" y="313.452" transform="matrix(-0.891 0.454 -0.454 -0.891 1152.0571 380.0681)" clip-path="url(#SVGID_6_)" fill="#5FFFD8" width="21.086" height="29.767"/>
		
			<rect x="510.259" y="294.676" transform="matrix(-0.891 0.454 -0.454 -0.891 1125.3782 348.9349)" clip-path="url(#SVGID_6_)" fill="#1BE3B3" width="21.086" height="29.768"/>
		
			<rect x="552.36" y="300.375" transform="matrix(-0.891 0.454 -0.454 -0.891 1207.0146 338.2639)" clip-path="url(#SVGID_6_)" fill="#5FFFD8" width="21.086" height="27.286"/>
		
			<rect x="546.377" y="290.342" transform="matrix(-0.891 0.4539 -0.4539 -0.891 1190.3004 318.5282)" clip-path="url(#SVGID_6_)" fill="#1BE3B3" width="21.087" height="23.564"/>
		
			<rect x="580.062" y="268.604" transform="matrix(-0.891 0.454 -0.454 -0.891 1248.6355 280.8543)" clip-path="url(#SVGID_6_)" fill="#5FFFD8" width="21.086" height="43.409"/>
		
			<rect x="569.253" y="256.011" transform="matrix(-0.891 0.454 -0.454 -0.891 1219.1006 247.8626)" clip-path="url(#SVGID_6_)" fill="#1BE3B3" width="21.088" height="28.526"/>
		
			<rect x="611.353" y="253.024" transform="matrix(-0.891 0.454 -0.454 -0.891 1300.7344 237.1874)" clip-path="url(#SVGID_6_)" fill="#5FFFD8" width="21.085" height="43.411"/>
		
			<rect x="594.562" y="220.479" transform="matrix(-0.891 0.454 -0.454 -0.891 1254.2037 183.2387)" clip-path="url(#SVGID_6_)" fill="#1BE3B3" width="21.085" height="43.41"/>
		
			<rect x="642.663" y="236.208" transform="matrix(-0.891 0.454 -0.454 -0.891 1352.306 191.1574)" clip-path="url(#SVGID_6_)" fill="#5FFFD8" width="21.085" height="43.409"/>
		
			<rect x="631.868" y="214.928" transform="matrix(-0.891 0.454 -0.454 -0.891 1322.2344 155.8472)" clip-path="url(#SVGID_6_)" fill="#1BE3B3" width="21.086" height="43.41"/>
		<path clip-path="url(#SVGID_6_)" fill="#FFAE64" d="M436.256,773.539l-14.643-12.546c-7.787-6.676-6.299-27.059-6.299-27.059    l-20.93-1.131v22.631l-3.396,11.88l43.574,8.486L436.256,773.539z"/>
		<path clip-path="url(#SVGID_6_)" fill="#2C2770" d="M428.943,787.114h13.982c1.814,0,3.509-0.966,4.424-2.536    c1.374-2.375,0.657-5.425-1.634-6.945c-2.768-1.842-6.812-4.578-11.73-8.056c-9.617-6.79-13.578-11.314-13.578-11.314    s-5.657,3.395-14.142,3.395c-8.489,0-13.015-6.225-13.015-6.225c-3.639,9.102-3.771,19.236-0.363,28.428l0.363,0.992l16.408,1.132    l2.829-2.262l7.482,2.137C422.89,786.692,425.908,787.114,428.943,787.114"/>
		<path clip-path="url(#SVGID_6_)" fill="#FFAE64" d="M369.273,773.539l-14.637-12.546c-7.787-6.676-6.297-27.059-6.297-27.059    l-20.933-1.131v22.631l-3.395,11.88l43.566,8.486L369.273,773.539z"/>
		<path clip-path="url(#SVGID_6_)" fill="#2C2770" d="M361.966,787.114h13.988c1.818,0,3.502-0.966,4.418-2.536    c1.384-2.375,0.655-5.425-1.634-6.945c-2.765-1.842-6.799-4.578-11.728-8.056c-9.618-6.79-13.577-11.314-13.577-11.314    s-5.659,3.395-14.145,3.395c-8.486,0-13.015-6.225-13.015-6.225c-3.639,9.102-3.771,19.236-0.37,28.428l0.37,0.992l16.409,1.132    l2.829-2.262l7.483,2.137C355.913,786.692,358.931,787.114,361.966,787.114"/>
		<path clip-path="url(#SVGID_6_)" fill="#2C2770" d="M357.826,753.27h-39.068l-5.583-184.806l-23.743-8.063    c-23.29-7.912-41.971-41.621-28.945-84.849l91.059,4.963l55.392,38.265c12.53,4.49,20.795,16.478,20.54,29.783l-3.914,204.706    h-36.59l-6.821-190.386l-26.672-14.519c8.346,4.542,13.367,13.461,12.917,22.954L357.826,753.27z"/>
		<path clip-path="url(#SVGID_6_)" fill="none" stroke="#FFFFFF" stroke-width="0.623" d="M260.486,475.553    c0,57.218,13.518,75.906,62.635,86.819v191.006"/>
		<polyline clip-path="url(#SVGID_6_)" fill="none" stroke="#FFFFFF" stroke-width="0.623" points="351.65,546.249 393.196,559.271     391.956,753.378   "/>
		<path clip-path="url(#SVGID_6_)" fill="#FFE071" d="M259.226,354.754l25.612-6.721h47.13c20.167,0,39.706,7.019,55.26,19.855    l22.253,18.362l-16.742,42.791l-29.572-21.086l-3.297,21.086l4.783,40.505c0.707,5.992-4.053,11.222-10.082,11.085l-90.104-2.082    c-5.614-0.126-10.004-4.884-9.678-10.491l2.507-43.075l-9.051,17.4l-32.747-7.061l11.68-47.946    C231.054,371.442,243.361,358.917,259.226,354.754"/>
		<defs>
			<filter id="Adobe_OpacityMaskFilter" filterUnits="userSpaceOnUse" x="219.555" y="332.92" width="189.763" height="167.438">
				<feColorMatrix type="matrix" values="1 0 0 0 0  0 1 0 0 0  0 0 1 0 0  0 0 0 1 0"/>
			</filter>
		</defs>
		<mask maskUnits="userSpaceOnUse" x="219.555" y="332.92" width="189.763" height="167.438" id="SVGID_7_">
			<g filter="url(#Adobe_OpacityMaskFilter)">
				<rect x="219.555" y="332.92" clip-path="url(#SVGID_6_)" width="189.766" height="167.435"/>
				<g enable-background="new    ">
					<g>
						<defs>
							<rect id="SVGID_8_" x="219.555" y="332.92" width="189.763" height="167.438"/>
						</defs>
						<clipPath id="SVGID_9_" clip-path="url(#SVGID_6_)">
							<use xlink:href="#SVGID_8_" overflow="visible"/>
						</clipPath>
						<path clip-path="url(#SVGID_9_)" fill-rule="evenodd" clip-rule="evenodd" fill="#FFFFFF" d="M259.225,354.758l25.614-6.722        h47.132c20.167,0,39.703,7.021,55.257,19.854l22.256,18.363l-16.745,42.79l-29.572-21.085l-3.297,21.085l4.783,40.507        c0.707,5.99-4.05,11.221-10.083,11.083l-90.104-2.076c-5.612-0.13-10-4.889-9.677-10.497l2.506-43.073l-9.053,17.401        l-32.745-7.062l11.68-47.948C231.057,371.445,243.361,358.92,259.225,354.758"/>
					</g>
				</g>
			</g>
		</mask>
		<g clip-path="url(#SVGID_6_)" mask="url(#SVGID_7_)">
			<g>
				<defs>
					<rect id="SVGID_10_" x="219.555" y="332.92" width="189.763" height="167.438"/>
				</defs>
				<clipPath id="SVGID_11_">
					<use xlink:href="#SVGID_10_" overflow="visible"/>
				</clipPath>
				<circle clip-path="url(#SVGID_11_)" fill="none" stroke="#D7BE67" stroke-width="3.114" cx="367.149" cy="355.247" r="19.225"/>
				<path clip-path="url(#SVGID_11_)" fill="none" stroke="#D7BE67" stroke-width="3.114" d="M233.197,367.022      c5.826,0,10.541,4.723,10.541,10.543c0,5.825-4.715,10.543-10.541,10.543c-5.822,0-10.543-4.718-10.543-10.543      C222.654,371.745,227.375,367.022,233.197,367.022z"/>
				<circle clip-path="url(#SVGID_11_)" fill="none" stroke="#D7BE67" stroke-width="1.868" cx="287.772" cy="404.854" r="6.821"/>
				<circle clip-path="url(#SVGID_11_)" fill="none" stroke="#D7BE67" stroke-width="1.868" cx="298.935" cy="480.513" r="17.984"/>
				<path clip-path="url(#SVGID_11_)" fill="none" stroke="#D7BE67" stroke-width="1.868" d="M389.475,406.716      c9.932,0,17.986,8.053,17.986,17.984s-8.055,17.983-17.986,17.983c-9.931,0-17.983-8.052-17.983-17.983      S379.544,406.716,389.475,406.716z"/>
			</g>
		</g>
		<path clip-path="url(#SVGID_6_)" fill="#FF9330" d="M285.014,342.361c2.329-5.819,1.941-24.733,1.457-33.462    c10.678,1.939,31.604,9.166,29.853,22.552c-1.745,13.386,3.157,16.731,5.826,16.731c2.913,6.306,4.808,19.644-10.921,22.553    s-28.886-10.911-33.493-18.188C279.188,351.577,282.688,348.182,285.014,342.361"/>
		<path clip-path="url(#SVGID_6_)" fill="#2C2770" d="M279.25,276.74c-12.02,4.821,0.172,20.134,5.445,27.633h17.729    c6.079,0,20.26-7.711,26.591-11.567c6.33-2.784,20.892-9.639,15.194-16.066c-10.672-9.024,4.496-17.001-11.631-25.063    c-16.12-8.062-24.184,8.061-40.926,8.061C274.908,259.738,289.17,272.762,279.25,276.74"/>
		<defs>
			<filter id="Adobe_OpacityMaskFilter_1_" filterUnits="userSpaceOnUse" x="286.49" y="311.223" width="45.024" height="32.397">
				<feColorMatrix type="matrix" values="1 0 0 0 0  0 1 0 0 0  0 0 1 0 0  0 0 0 1 0"/>
			</filter>
		</defs>
		<mask maskUnits="userSpaceOnUse" x="286.49" y="311.223" width="45.024" height="32.397" id="SVGID_12_">
			<g filter="url(#Adobe_OpacityMaskFilter_1_)">
				<g>
					<defs>
						<rect id="SVGID_13_" x="286.49" y="311.223" width="45.023" height="32.397"/>
					</defs>
					<clipPath id="SVGID_14_" clip-path="url(#SVGID_6_)">
						<use xlink:href="#SVGID_13_" overflow="visible"/>
					</clipPath>
					<rect x="286.49" y="311.223" clip-path="url(#SVGID_14_)" width="55.576" height="34.573"/>
					<g enable-background="new    ">
						<g>
							<defs>
								<rect id="SVGID_15_" x="286.49" y="311.223" width="55.576" height="34.573"/>
							</defs>
							<clipPath id="SVGID_16_" clip-path="url(#SVGID_14_)">
								<use xlink:href="#SVGID_15_" overflow="visible"/>
							</clipPath>
							<path clip-path="url(#SVGID_16_)" fill-rule="evenodd" clip-rule="evenodd" fill="#FFFFFF" d="M285.403,342.354         c2.315-5.75,1.934-24.43,1.45-33.053c10.611,1.918,31.4,9.054,29.664,22.275c-1.738,13.219,3.134,16.527,5.786,16.527         c2.896,6.226,4.779,19.399-10.852,22.273c-15.628,2.873-28.701-10.777-33.283-17.963         C279.619,351.454,283.092,348.103,285.403,342.354"/>
						</g>
					</g>
				</g>
			</g>
		</mask>
		<g clip-path="url(#SVGID_6_)" mask="url(#SVGID_12_)">
			<g>
				<defs>
					<rect id="SVGID_17_" x="286.49" y="311.223" width="45.023" height="32.397"/>
				</defs>
				<clipPath id="SVGID_18_">
					<use xlink:href="#SVGID_17_" overflow="visible"/>
				</clipPath>
				<path clip-path="url(#SVGID_18_)" fill="#D76767" d="M318.505,343.235c-23.563-2.562-31.159-22.409-32.015-32.012l32.015,17.926      C328.322,334.911,342.066,345.796,318.505,343.235"/>
			</g>
		</g>
		<path clip-path="url(#SVGID_6_)" fill="#FF9330" d="M287.111,310.883c-0.476,7.975,9.248,22.475,27.037,21.75    c10.388-0.422,13.009-12.296,15.656-25.375c1.885-9.323,5.453-19.261,4.27-26.1l-15.654-5.076c2.135,2.9,6.402,7.25-0.712,7.25    c-7.04,0-13.756-2.174-16.366-4.35c-1.422,8.702-7.828,7.976-7.828,12.326v12.325c-5.688,0.58-6.64-5.075-6.402-7.975    c-2.374-1.45-7.117-2.465-7.117,5.075S284.737,310.641,287.111,310.883"/>
		<path clip-path="url(#SVGID_6_)" fill="#2C2770" d="M296.037,306.607c-0.993-1.488-2.481-4.34-2.481-6.822    c-2.065-3.72-6.077-9.178-5.582-1.238c0,4.958,0.622,9.3,0.622,13.022c0,8.683-1.241,15.627,6.2,23.567    c9.304,9.921,29.769,9.301,35.35,1.859c6.841-9.121,0-14.264-1.24-22.325c-8.477,0.208-17.366,0-24.188-0.622    C299.138,313.541,297.896,309.087,296.037,306.607"/>
		<path clip-path="url(#SVGID_6_)" fill="#FFFFFF" d="M308.798,314.507l7.924,3.962c-0.567,1.131-2.38,2.599-5.095,1.696    C308.913,319.259,308.61,316.393,308.798,314.507"/>
		<path clip-path="url(#SVGID_6_)" fill="#2C2770" d="M331.431,290.742h-5.66c-0.938,0-1.694,0.761-1.694,1.698    c0,0.939,0.756,1.697,1.694,1.697h5.66c0.937,0,1.694-0.758,1.694-1.697C333.125,291.502,332.367,290.742,331.431,290.742"/>
		<path clip-path="url(#SVGID_6_)" fill="#2C2770" d="M308.798,290.742h-5.658c-0.938,0-1.696,0.761-1.696,1.698    c0,0.939,0.758,1.697,1.696,1.697h5.658c0.938,0,1.698-0.758,1.698-1.697C310.496,291.502,309.736,290.742,308.798,290.742"/>
		<path clip-path="url(#SVGID_6_)" d="M306.535,299.796c-0.936,0-1.699-0.759-1.699-1.696c0-0.938,0.764-1.7,1.699-1.7    c0.937,0,1.698,0.762,1.698,1.7C308.233,299.037,307.472,299.796,306.535,299.796"/>
		<polyline clip-path="url(#SVGID_6_)" fill="none" stroke="#000000" stroke-width="0.623" points="319.551,293.004     319.551,313.373 314.455,313.373   "/>
		<path clip-path="url(#SVGID_6_)" d="M328.036,299.796c-0.938,0-1.699-0.759-1.699-1.696c0-0.938,0.761-1.7,1.699-1.7    c0.935,0,1.697,0.762,1.697,1.7C329.733,299.037,328.971,299.796,328.036,299.796"/>
		<path clip-path="url(#SVGID_6_)" fill="#2C2770" d="M310.529,455.951l20.702-58.348c0.435-1.227,1.748-1.911,3.004-1.56    l42.12,11.738c1.404,0.392,2.173,1.909,1.651,3.271l-22.074,57.97c-0.454,1.194-1.747,1.848-2.983,1.505l-40.747-11.356    C310.82,458.785,310.048,457.307,310.529,455.951"/>
		<path clip-path="url(#SVGID_6_)" fill="#FF9330" d="M298.332,432.47l-49.713,9.583l-33.243-6.809l-2.436,26.448    c-1.082,11.732,10.381,20.624,21.479,16.661l69.102-24.678l8.785,0.454c0.261,0.013,0.521,0.005,0.782-0.022l11.156-1.179    c0.099-0.012,0.195-0.017,0.291-0.01l16.273,0.964c1.347,0.077,2.538-0.874,2.754-2.209c0.234-1.434-0.742-2.789-2.177-3.022    l-12.734-2.066l15.35-0.645c1.143-0.047,2.054-0.975,2.083-2.118c0.026-1.136-0.823-2.102-1.955-2.216l-14.436-1.453l16.034-2.741    c1.276-0.217,2.177-1.364,2.091-2.654c-0.089-1.322-1.187-2.352-2.514-2.354l-17.261-0.021l17.086-3.274    c1.663-0.318,2.648-2.047,2.078-3.64c-0.415-1.16-1.545-1.902-2.77-1.827l-22.433,1.406l3.135-8.408l-13.96,4.276    c-1.615,0.496-3.078,1.392-4.246,2.61L298.332,432.47z"/>
		<path clip-path="url(#SVGID_6_)" fill="#FF9330" d="M472.744,328.58l-63.884,58.914l-14.882,37.83l1.795,0.549    c12.353,3.772,25.745-0.499,33.631-10.734l57.604-74.776l25.414-4.961l18.442,1.154c0.677,0.041,1.176-0.612,0.956-1.251    c-0.496-1.491-1.693-2.641-3.207-3.072l-36.651-10.473l1.654-3.886c1.358-3.165,2.072-6.572,2.072-10.014    c0-1.038-1.272-1.55-1.99-0.808L472.744,328.58z"/>
		<path clip-path="url(#SVGID_6_)" fill="#DAE2FF" d="M239.854,96.8c-5.324-10.449-1.17-23.234,9.279-28.557l94.589-48.198    c10.451-5.324,23.235-1.169,28.559,9.28l67.479,132.428c5.318,10.447,1.154,23.234-9.281,28.559l-94.591,48.195    c-10.449,5.323-23.236,1.168-28.558-9.279L239.854,96.8z"/>
		<defs>
			<filter id="Adobe_OpacityMaskFilter_2_" filterUnits="userSpaceOnUse" x="305.906" y="139.251" width="65.838" height="65.835">
				<feColorMatrix type="matrix" values="1 0 0 0 0  0 1 0 0 0  0 0 1 0 0  0 0 0 1 0"/>
			</filter>
		</defs>
		<mask maskUnits="userSpaceOnUse" x="305.906" y="139.251" width="65.838" height="65.835" id="SVGID_19_">
			<g filter="url(#Adobe_OpacityMaskFilter_2_)">
				<g>
					<defs>
						<rect id="SVGID_20_" x="305.906" y="139.251" width="65.835" height="65.835"/>
					</defs>
					<clipPath id="SVGID_21_" clip-path="url(#SVGID_6_)">
						<use xlink:href="#SVGID_20_" overflow="visible"/>
					</clipPath>
					<rect x="301.251" y="134.593" clip-path="url(#SVGID_21_)" width="75.149" height="75.149"/>
					<g enable-background="new    ">
						<path clip-path="url(#SVGID_21_)" fill-rule="evenodd" clip-rule="evenodd" fill="#FFFFFF" d="M353.767,201.493        c16.195-8.251,22.634-28.07,14.382-44.265c-8.252-16.195-28.07-22.635-44.263-14.383        c-16.198,8.252-22.635,28.071-14.384,44.266C317.755,203.306,337.572,209.745,353.767,201.493 M348.644,191.437        c10.645-5.421,14.873-18.445,9.452-29.088c-5.423-10.641-18.445-14.872-29.087-9.451        c-10.642,5.422-14.872,18.446-9.452,29.088C324.979,192.628,338.002,196.859,348.644,191.437"/>
					</g>
				</g>
			</g>
		</mask>
		<g clip-path="url(#SVGID_6_)" mask="url(#SVGID_19_)">
			<g>
				<defs>
					<rect id="SVGID_22_" x="305.906" y="139.251" width="65.838" height="65.835"/>
				</defs>
				<clipPath id="SVGID_23_">
					<use xlink:href="#SVGID_22_" overflow="visible"/>
				</clipPath>
				<path clip-path="url(#SVGID_23_)" fill="#FAFAFA" d="M353.766,201.493c16.195-8.252,22.635-28.07,14.383-44.266      c-8.253-16.195-28.07-22.634-44.263-14.382c-16.196,8.252-22.635,28.069-14.384,44.266      C317.755,203.306,337.572,209.743,353.766,201.493"/>
			</g>
		</g>
		<defs>
			<filter id="Adobe_OpacityMaskFilter_3_" filterUnits="userSpaceOnUse" x="305.915" y="139.258" width="62.233" height="65.821">
				<feColorMatrix type="matrix" values="1 0 0 0 0  0 1 0 0 0  0 0 1 0 0  0 0 0 1 0"/>
			</filter>
		</defs>
		<mask maskUnits="userSpaceOnUse" x="305.915" y="139.258" width="62.233" height="65.821" id="SVGID_24_">
			<g filter="url(#Adobe_OpacityMaskFilter_3_)">
				<g>
					<defs>
						<rect id="SVGID_25_" x="305.918" y="139.258" width="62.23" height="65.82"/>
					</defs>
					<clipPath id="SVGID_26_" clip-path="url(#SVGID_6_)">
						<use xlink:href="#SVGID_25_" overflow="visible"/>
					</clipPath>
					<rect x="305.385" y="138.849" clip-path="url(#SVGID_26_)" width="62.764" height="66.767"/>
					<g enable-background="new    ">
						<g>
							<defs>
								<rect id="SVGID_27_" x="305.385" y="138.849" width="62.764" height="66.767"/>
							</defs>
							<clipPath id="SVGID_28_" clip-path="url(#SVGID_26_)">
								<use xlink:href="#SVGID_27_" overflow="visible"/>
							</clipPath>
							<path clip-path="url(#SVGID_28_)" fill-rule="evenodd" clip-rule="evenodd" fill="#FFFFFF" d="M353.767,201.493         c16.195-8.251,22.634-28.07,14.382-44.265c-8.252-16.195-28.07-22.635-44.263-14.383         c-16.198,8.252-22.635,28.071-14.384,44.266C317.755,203.306,337.572,209.745,353.767,201.493 M348.644,191.437         c10.645-5.421,14.873-18.445,9.452-29.088c-5.423-10.641-18.445-14.872-29.087-9.451         c-10.642,5.422-14.872,18.446-9.452,29.088C324.979,192.628,338.002,196.859,348.644,191.437"/>
						</g>
					</g>
				</g>
			</g>
		</mask>
		<g clip-path="url(#SVGID_6_)" mask="url(#SVGID_24_)">
			<g>
				<defs>
					<rect id="SVGID_29_" x="305.918" y="139.258" width="62.23" height="65.82"/>
				</defs>
				<clipPath id="SVGID_30_">
					<use xlink:href="#SVGID_29_" overflow="visible"/>
				</clipPath>
				<path clip-path="url(#SVGID_30_)" fill="#FF8282" d="M368.148,157.227c-2.953-5.8-7.563-10.592-13.242-13.772      c-5.68-3.181-12.173-4.606-18.661-4.095c-6.49,0.512-12.684,2.936-17.793,6.965c-5.11,4.031-8.914,9.485-10.928,15.675      c-2.01,6.19-2.14,12.837-0.373,19.104c1.767,6.264,5.353,11.862,10.303,16.091c4.946,4.227,11.04,6.891,17.504,7.657      c6.464,0.765,13.008-0.405,18.809-3.358l-14.941-29.326L368.148,157.227z"/>
			</g>
		</g>
		<path clip-path="url(#SVGID_6_)" fill="#FFFFFF" d="M278.355,125.981c-0.631-1.24-0.138-2.757,1.104-3.392l42.69-21.752    c1.241-0.631,2.758-0.139,3.389,1.102c0.636,1.242,0.143,2.761-1.1,3.392l-42.692,21.752    C280.505,127.717,278.986,127.223,278.355,125.981"/>
		<path clip-path="url(#SVGID_6_)" fill="#FFFFFF" d="M284.91,138.847c-0.631-1.241-0.137-2.758,1.104-3.392l31.455-16.027    c1.242-0.631,2.762-0.14,3.393,1.101c0.631,1.241,0.139,2.76-1.103,3.393l-31.458,16.027    C287.061,140.582,285.54,140.089,284.91,138.847"/>
		<path clip-path="url(#SVGID_6_)" fill="#FF8282" d="M263.035,90.448l90.172-45.944c1.219-0.622,2.713-0.135,3.336,1.085    l7.385,14.496c0.624,1.222,0.139,2.715-1.083,3.337l-90.171,45.944c-1.219,0.624-2.713,0.137-3.336-1.083l-7.386-14.498    C261.329,92.564,261.813,91.07,263.035,90.448"/>
		<path clip-path="url(#SVGID_6_)" fill="#DAE2FF" d="M435.221,78.981c-4.304-8.064-1.259-18.065,6.771-22.338l72.76-38.679    c8.026-4.273,18.022-1.2,22.309,6.865l54.334,102.209c4.302,8.065,1.254,18.066-6.773,22.338l-72.762,38.681    c-8.023,4.275-18.023,1.2-22.305-6.866L435.221,78.981z"/>
		<path clip-path="url(#SVGID_6_)" fill="#2C2770" d="M465.475,100.838c-0.479-0.906-0.101-2.051,0.835-2.558l32.706-17.383    c0.955-0.507,2.112-0.181,2.59,0.726c0.478,0.906,0.099,2.05-0.837,2.558l-32.707,17.386    C467.106,102.071,465.954,101.746,465.475,100.838"/>
		<path clip-path="url(#SVGID_6_)" fill="#2C2770" d="M471.092,110.91c-0.479-0.908-0.099-2.049,0.836-2.552l23.961-12.737    c0.937-0.503,2.092-0.175,2.59,0.731c0.478,0.908,0.1,2.052-0.837,2.553l-23.96,12.738    C472.727,112.146,471.57,111.816,471.092,110.91"/>
		<path clip-path="url(#SVGID_6_)" fill="#1BE3B3" d="M453.863,73.632l67.896-36.1c1.211-0.644,2.712-0.185,3.355,1.025l5.24,9.855    c0.642,1.209,0.183,2.713-1.027,3.354L461.432,87.87c-1.209,0.644-2.712,0.183-3.354-1.026l-5.242-9.854    C452.192,75.779,452.65,74.275,453.863,73.632"/>
		
			<rect x="492.835" y="116.651" transform="matrix(-0.883 0.4694 -0.4694 -0.883 1009.2957 35.0603)" clip-path="url(#SVGID_6_)" fill="#FAFAFA" width="14.886" height="53.332"/>
		<polygon clip-path="url(#SVGID_6_)" fill="#1BE3B3" points="492.644,143.046 505.788,136.06 520.325,163.438 507.203,170.426       "/>
		
			<rect x="518.889" y="103.011" transform="matrix(-0.883 0.4694 -0.4694 -0.883 1051.9401 -2.9)" clip-path="url(#SVGID_6_)" fill="#FAFAFA" width="14.885" height="53.331"/>
		
			<rect x="546.178" y="89.363" transform="matrix(-0.8829 0.4695 -0.4695 -0.8829 1096.9056 -41.4404)" clip-path="url(#SVGID_6_)" fill="#FAFAFA" width="14.883" height="53.333"/>
		
			<rect x="527.573" y="134.017" transform="matrix(-0.8831 0.4693 -0.4693 -0.8831 1075.3035 21.144)" clip-path="url(#SVGID_6_)" fill="#1BE3B3" width="14.889" height="21.085"/>
		
			<rect x="549.902" y="104.253" transform="matrix(-0.883 0.4694 -0.4694 -0.883 1107.1472 -30.2648)" clip-path="url(#SVGID_6_)" fill="#1BE3B3" width="14.887" height="37.209"/>
		<path clip-path="url(#SVGID_6_)" fill="#FFAE64" d="M160.307,773.467l-14.711-11.879c-5.065-4.343-7.876-11.316-6.223-26.026    c2.063-18.359,13.578-95.049,13.578-95.049h-31.118l-2.262,115.416l-2.829,11.317l41.867,8.484L160.307,773.467z"/>
		<path clip-path="url(#SVGID_6_)" fill="#2C2770" d="M155.894,774.338l-38.586-9.924c-3.416,3.074-4.609,7.921-3.014,12.23    l3.014,8.139l16.408,1.134l1.133-3.966l8.358,3.137c3.45,1.294,7.109,1.959,10.793,1.959h13.044c1.784,0,3.437-0.948,4.331-2.49    c1.391-2.379,0.6-5.437-1.769-6.846l-16.656-9.901l4.481,3.261c0.914,0.664,1.022,1.987,0.222,2.786    C157.193,774.315,156.526,774.499,155.894,774.338"/>
		<path clip-path="url(#SVGID_6_)" fill="#FFAE64" d="M34.687,772.688l14.144-10.748c5.065-4.342,7.921-19.805,9.052-26.028    c3.961-27.721,8.488-99.572,8.488-99.572h31.117L75.989,757.414l2.828,10.181l-42.433,7.356L34.687,772.688z"/>
		<path clip-path="url(#SVGID_6_)" fill="#2C2770" d="M39.099,774.127l38.586-9.923c3.417,3.074,4.608,7.921,3.014,12.229    l-3.014,8.139l-16.407,1.135l-1.133-3.963l-8.358,3.135c-3.451,1.294-7.106,1.958-10.793,1.958H27.951    c-1.785,0-3.436-0.948-4.334-2.491c-1.389-2.382-0.601-5.435,1.768-6.843l16.656-9.903l-4.485,3.262    c-0.911,0.663-1.013,1.987-0.217,2.785C37.798,774.108,38.468,774.289,39.099,774.127"/>
		<path clip-path="url(#SVGID_6_)" fill="#2C2770" d="M67.093,436.912l4.654-23.027l94.478-2.828l8.491,64.498l-1.182,168.691    H48.505l15.317-138.142l-0.254-2.701C61.487,481.185,62.677,458.782,67.093,436.912"/>
		<path clip-path="url(#SVGID_6_)" fill="none" stroke="#FFFFFF" stroke-width="0.623" d="M77.401,411.625    c-3.016,15.089-9.052,58.389-9.052,110.892c0,0-2.066,63.117-11.493,122.711"/>
		<path clip-path="url(#SVGID_6_)" fill="#FF9330" d="M230.129,264.146l-25.476,12.941l2.8,28.071l24.985-11.026    c15.591-6.88,26.561-21.286,29.047-38.147l8.872-60.149l7.365-8.385l5.716-7.411c1.958-2.54,2.683-5.821,1.975-8.948    c-0.515-2.268-2.046-4.172-4.151-5.161l-10.635-4.977l7.008-16.894c0.679-1.642-0.266-3.501-1.99-3.922    c-1.259-0.307-2.569,0.26-3.205,1.387l-10.739,18.97l-2.819-0.47c-1.606-0.27-3.203,0.54-3.936,1.993l-3.289,6.523    c-1.037,2.059-1.325,4.412-0.82,6.658l2.691,11.886L230.129,264.146z"/>
		<path clip-path="url(#SVGID_6_)" fill="none" stroke="#000000" stroke-width="0.623" d="M277.929,164.446l-6.315,12.124    c-0.625,1.204-2.079,1.717-3.32,1.173c-1.183-0.519-1.803-1.829-1.448-3.069l1.046-3.69"/>
		<path clip-path="url(#SVGID_6_)" fill="none" stroke="#000000" stroke-width="0.623" d="M283.695,167.279l-7.622,11.477    c-0.717,1.081-2.15,1.419-3.276,0.778c-1.147-0.653-1.575-2.093-0.975-3.267l0.302-0.592"/>
		<path clip-path="url(#SVGID_6_)" fill="none" stroke="#000000" stroke-width="0.623" d="M284.671,176.073l-6.195,8.695    c-0.788,1.102-2.281,1.432-3.456,0.76c-1.136-0.648-1.625-2.033-1.152-3.25l1.147-2.942"/>
		<path clip-path="url(#SVGID_6_)" fill="none" stroke="#000000" stroke-width="0.623" d="M263.833,161.427l10.762,4.571    c0.906,0.387,1.357,1.407,1.033,2.338c-0.701,2.009-2.672,3.293-4.79,3.121l-9.841-0.795c1.904,1.232,4.506,8.045,4.772,15.105"/>
		<path clip-path="url(#SVGID_6_)" fill="#54B7FF" d="M68.06,289.02l25.612-6.724h66.29c7.987,0,15.936-1.101,23.627-3.275    l38.765-10.962l6.786,34.777l-57.14,34.66l-5.137,21.181l4.521,32.067c1.808,12.824-8.262,24.23-21.209,24.025l-69.442-1.094    c-5.009-0.079-9.173-3.881-9.71-8.862l-4.894-45.566l-9.052,17.4l-32.742-7.061l11.674-47.946    C39.891,305.706,52.196,293.18,68.06,289.02"/>
		<path clip-path="url(#SVGID_6_)" fill="#FF6767" d="M93.671,282.296L68.06,289.02c-15.864,4.161-28.168,16.687-32.052,32.621    l-11.674,47.946l32.742,7.061l6.82-10.86l3.24,36.098c0.731,8.133,0.221,16.333-1.514,24.316L25.925,608.995    c-0.826,3.805,2.013,7.422,5.905,7.521l29.653,0.737l37.763-139.84V290.749h32.868l7.442,186.665l21.017,142.31l30.528,0.762    c3.847,0.095,6.854-3.301,6.29-7.108l-36.128-243.79l4.083-6.869c4.354-7.328,6.652-15.693,6.652-24.218l57.14-35.664    l-6.786-34.777l-38.765,10.962c-7.691,2.175-15.64,3.275-23.627,3.275H93.671z"/>
		<path clip-path="url(#SVGID_6_)" fill="#2C2770" d="M145.596,213.436c-1.393-11.142-12.186-12.768-17.409-12.186    c-2.902-1.743-8.705-8.706-20.893-6.965c-12.186,1.74-26.111,8.706-22.629,24.374c0,0-8.124,19.73-10.447,27.854    c-6.964,17.409,3.112,30.037,17.408,31.334c19.15,1.742,10.443,0,40.042,3.482c29.597,3.483,31.335-20.89,24.373-36.559    C149.079,229.104,147.337,227.363,145.596,213.436"/>
		<path clip-path="url(#SVGID_6_)" fill="#FFAE64" d="M136.891,225.622v5.221c2.323-0.579,6.966-0.695,6.966,3.483    c0,5.223-3.482,8.705-6.966,6.964c-0.453,5.425-3.371,16.137-12.05,20.603c0.313,4.092,1.222,9.963,3.346,14.216    c2.784,5.571,8.124,8.124,10.444,8.704c-3.482,4.063-13.234,12.186-24.373,12.186c-11.14,0-19.729-8.123-22.632-12.186    c1.739-0.58,6.27-2.785,10.446-6.964c3.292-3.29,3.919-11.106,3.755-16.836c-7.237-4.866-9.442-14.628-10.719-19.722    c-2.318,0.579-6.963,0.349-6.963-5.222c0-5.572,5.22-5.803,6.963-5.225v-5.221c3.482,0.58,12.539,0.346,20.893-5.225    c8.356-5.57,10.444-8.124,10.444-8.703c0,2.901,1.28,8.244,3.482,10.444C133.41,225.622,135.732,225.04,136.891,225.622"/>
		<path clip-path="url(#SVGID_6_)" fill="#FFFFFF" d="M122.313,249.455l-7.918,3.961c0.566,1.132,2.373,2.603,5.09,1.697    C122.201,254.208,122.503,251.342,122.313,249.455"/>
		<path clip-path="url(#SVGID_6_)" fill="#2C2770" d="M99.683,225.688h5.658c0.936,0,1.697,0.759,1.697,1.697    c0,0.938-0.761,1.699-1.697,1.699h-5.658c-0.937,0-1.697-0.761-1.697-1.699C97.986,226.447,98.746,225.688,99.683,225.688"/>
		<path clip-path="url(#SVGID_6_)" fill="#2C2770" d="M122.313,225.688h5.659c0.936,0,1.699,0.759,1.699,1.697    c0,0.938-0.763,1.699-1.699,1.699h-5.659c-0.938,0-1.696-0.761-1.696-1.699C120.617,226.447,121.375,225.688,122.313,225.688"/>
		<path clip-path="url(#SVGID_6_)" d="M124.576,234.745c0.938,0,1.696-0.76,1.696-1.698c0-0.937-0.757-1.697-1.696-1.697    c-0.939,0-1.699,0.761-1.699,1.697C122.877,233.985,123.637,234.745,124.576,234.745"/>
		<polyline clip-path="url(#SVGID_6_)" fill="none" stroke="#000000" stroke-width="0.623" points="111.563,227.954     111.563,248.322 116.657,248.322   "/>
		<path clip-path="url(#SVGID_6_)" d="M103.078,234.745c0.937,0,1.698-0.76,1.698-1.698c0-0.937-0.762-1.697-1.698-1.697    c-0.938,0-1.696,0.761-1.696,1.697C101.382,233.985,102.14,234.745,103.078,234.745"/>
		<path clip-path="url(#SVGID_6_)" fill="none" stroke="#000000" stroke-width="0.623" d="M139.852,234.178    c0.566,1.32,0.681,4.073-3.395,4.525"/>
		<path clip-path="url(#SVGID_6_)" fill="none" stroke="#000000" stroke-width="0.623" d="M91.486,234.178    c-0.566,1.32-0.68,4.073,3.392,4.525"/>
		<defs>
			<filter id="Adobe_OpacityMaskFilter_4_" filterUnits="userSpaceOnUse" x="103.644" y="260.2" width="22.631" height="11.881">
				<feColorMatrix type="matrix" values="1 0 0 0 0  0 1 0 0 0  0 0 1 0 0  0 0 0 1 0"/>
			</filter>
		</defs>
		<mask maskUnits="userSpaceOnUse" x="103.644" y="260.2" width="22.631" height="11.881" id="SVGID_31_">
			<g filter="url(#Adobe_OpacityMaskFilter_4_)">
				<rect x="103.644" y="260.2" clip-path="url(#SVGID_6_)" width="22.631" height="11.881"/>
				<g enable-background="new    ">
					<g>
						<defs>
							<rect id="SVGID_32_" x="103.644" y="260.2" width="22.631" height="11.881"/>
						</defs>
						<clipPath id="SVGID_33_" clip-path="url(#SVGID_6_)">
							<use xlink:href="#SVGID_32_" overflow="visible"/>
						</clipPath>
						<path clip-path="url(#SVGID_33_)" fill-rule="evenodd" clip-rule="evenodd" fill="#FFFFFF" d="M136.891,225.622v5.221        c2.323-0.579,6.966-0.695,6.966,3.483c0,5.223-3.482,8.705-6.966,6.964c-0.453,5.425-3.371,16.137-12.047,20.603        c0.31,4.092,1.22,9.963,3.344,14.216c2.787,5.571,8.124,8.124,10.447,8.704c-3.482,4.063-13.232,12.186-24.375,12.186        c-11.141,0-19.731-8.123-22.633-12.186c1.739-0.58,6.27-2.785,10.447-6.964c3.29-3.29,3.917-11.106,3.753-16.836        c-7.237-4.866-9.442-14.628-10.719-19.722c-2.318,0.579-6.963,0.349-6.963-5.222c0-5.572,5.22-5.803,6.963-5.225v-5.221        c3.482,0.58,12.539,0.346,20.893-5.225c8.356-5.57,10.444-8.124,10.444-8.703c0,2.901,1.28,8.244,3.482,10.444        C133.41,225.622,135.732,225.04,136.891,225.622"/>
					</g>
				</g>
			</g>
		</mask>
		<g clip-path="url(#SVGID_6_)" mask="url(#SVGID_31_)">
			<g>
				<defs>
					<rect id="SVGID_34_" x="103.644" y="260.2" width="22.631" height="11.881"/>
				</defs>
				<clipPath id="SVGID_35_">
					<use xlink:href="#SVGID_34_" overflow="visible"/>
				</clipPath>
				<path clip-path="url(#SVGID_35_)" fill="#FF8282" d="M104.209,260.2c1.508,0.943,6.336,3.394,11.315,3.394      c4.724,0,9.145-1.529,10.552-2.168l0.199-0.094c-0.058,0.028-0.123,0.06-0.199,0.094l-22.432,10.655L104.209,260.2z"/>
			</g>
		</g>
		<circle clip-path="url(#SVGID_6_)" fill="none" stroke="#000000" stroke-width="0.623" cx="126.043" cy="231.895" r="9.301"/>
		<circle clip-path="url(#SVGID_6_)" fill="none" stroke="#000000" stroke-width="0.623" cx="101.237" cy="231.895" r="9.301"/>
		<path clip-path="url(#SVGID_6_)" fill="none" stroke="#000000" stroke-width="0.623" d="M109.92,228.794    c0.827-0.825,3.347-1.984,6.821,0"/>
		<path clip-path="url(#SVGID_6_)" fill="#2C2770" d="M214.651,350.66l-58.996,8.246c-2.245,0.314-4.141,1.829-4.946,3.948    l-13.398,35.444c-1.662,4.392,1.973,8.963,6.628,8.339l51.133-6.867c2.173-0.292,4.028-1.71,4.882-3.725l18.248-43.02    L214.651,350.66z"/>
		<path clip-path="url(#SVGID_6_)" fill="#6B8CFF" d="M216.878,353.029l-58.856,8.239c-2.246,0.313-4.14,1.826-4.943,3.949    l-13.401,35.444c-1.662,4.391,1.97,8.964,6.625,8.34l51.088-6.864c2.196-0.297,4.069-1.739,4.911-3.791l17.216-41.917    C220.244,354.656,218.775,352.765,216.878,353.029"/>
		<path clip-path="url(#SVGID_6_)" fill="#2C2770" d="M182.612,385.779c2.606-1.964,3.286-5.463,1.521-7.808    c-1.771-2.35-5.318-2.658-7.927-0.692c-2.607,1.967-3.289,5.461-1.521,7.809C176.455,387.434,180.001,387.745,182.612,385.779"/>
		<path clip-path="url(#SVGID_6_)" fill="#FF9330" d="M119.327,386.248l-63.733-9.991l-28.979-6.505l-2.807,14.391    c-2.237,11.467,6.527,22.135,18.211,22.169l72.565,0.206l7.258,4.173c0.226,0.125,0.46,0.239,0.704,0.333l9.938,3.786    c0.115,0.046,0.235,0.082,0.357,0.107l16.513,3.517c0.857,0.186,1.744-0.154,2.263-0.863c0.937-1.281,0.27-3.105-1.272-3.477    l-11.334-2.753h17.621c0.672,0,1.294-0.372,1.611-0.963c0.63-1.155-0.13-2.57-1.437-2.694l-14.131-1.361l20.842-1.839    c0.801-0.07,1.503-0.582,1.818-1.322c0.592-1.392-0.373-2.952-1.884-3.042l-18.822-1.116l17.533-2.767    c1.199-0.188,2.127-1.146,2.279-2.349c0.202-1.597-1.015-3.022-2.624-3.064l-22.807-0.65l1.72-1.076l3.549-9.462l-10.626,1.773    c-0.554,0.094-1.097,0.234-1.627,0.419L119.327,386.248z"/>
	</g>
	<g clip-path="url(#SVGID_2_)">
		<defs>
			<rect id="SVGID_36_" x="-400" y="-100.25" width="1440" height="1024"/>
		</defs>
		<clipPath id="SVGID_37_">
			<use xlink:href="#SVGID_36_" overflow="visible"/>
		</clipPath>
	</g>
</g>
</svg>